# xmcd CD database file
#
# Track frame offsets:
#	150
#	27233
#	43291
#	65049
#	84032
#	102940
#	115623
#	129431
#	145414
#	163947
#	184730
#	203563
#	223596
#	243554
#
# Disc length: 3476 seconds
#
# Revision: 0
# Processed by: cddbd v1.4PL0 Copyright (c) Steve Scherf et al.
# Submitted via: CDex 1.50
#
DISCID=c70d920e
DTITLE=Ellen Vanderslice and Others - The Standard Vanderslice
DYEAR=1900
DGENRE=Jazz
TTITLE0=Off the Deep End
TTITLE1=Sweet Elusive One
TTITLE2=All That's Missing is You
TTITLE3=It's Magic (Each Time We Meet)
TTITLE4=Moonshadow Dance
TTITLE5=If I Never See You Again
TTITLE6=Airport Romance
TTITLE7=The Probability of Love
TTITLE8=Once in a Blue Moon
TTITLE9=Come On Back, Anytime
TTITLE10=If I'm Lucky
TTITLE11=One Minute More
TTITLE12=Twilight of Blue
TTITLE13=A Christmas Lullabye
EXTD=
EXTT0=
EXTT1=
EXTT2=
EXTT3=
EXTT4=
EXTT5=
EXTT6=
EXTT7=
EXTT8=
EXTT9=
EXTT10=
EXTT11=
EXTT12=
EXTT13=
PLAYORDER=
